<?xml version="1.0"?>
<svg xmlns="http://www.w3.org/2000/svg" xmlns:xlink="http://www.w3.org/1999/xlink" version="1.1" id="Capa_1" x="0px" y="0px" viewBox="0 0 464 464" style="enable-background:new 0 0 464 464;" xml:space="preserve" width="512" height="512"><g transform="matrix(1 0 0 1 0 0)"><path style="fill:#ED1C24;" d="M400,306v32h32v24h-48.88c-22.13-21.605-57.585-21.18-79.19,0.95  C293.734,373.394,288.018,387.405,288,402H152c0.024-30.901-25.007-55.972-55.908-55.996C81.43,345.993,67.35,351.736,56.88,362H0  v-54.08c0.003-6.072,3.443-11.618,8.88-14.32l66.96-33.52c1.091-0.572,2.112-1.27,3.04-2.08h234.56c1.019,0.454,2.06,0.854,3.12,1.2  l103.6,27.6c6.99,1.919,11.836,8.272,11.84,15.52V306H400z" data-original="#ED1C24"/><g>
	<path style="fill:#333333;" d="M0,375.168c0.009,6.533,3.99,12.405,10.056,14.832L40,402c-0.011-15.06,6.065-29.486,16.848-40H0   V375.168z" data-original="#333333"/>
	<circle style="fill:#333333;" cx="96" cy="402" r="32" data-original="#333333"/>
</g><path style="fill:#1A1A1A;" d="M96,438c-19.882,0-36-16.118-36-36s16.118-36,36-36s36,16.118,36,36  C131.978,421.873,115.873,437.978,96,438z M96,374c-15.464,0-28,12.536-28,28s12.536,28,28,28s28-12.536,28-28S111.464,374,96,374z" data-original="#1A1A1A"/><circle style="fill:#333333;" cx="344" cy="402" r="32" data-original="#333333"/><path style="fill:#1A1A1A;" d="M344,438c-19.882,0-36-16.118-36-36s16.118-36,36-36s36,16.118,36,36  C379.978,421.873,363.873,437.978,344,438z M344,374c-15.464,0-28,12.536-28,28s12.536,28,28,28s28-12.536,28-28  S359.464,374,344,374z" data-original="#1A1A1A"/><path style="fill:#0378A3;" d="M176,178h-38.944c-5.62,0-10.828,2.949-13.72,7.768L82.4,254c-0.951,1.526-2.155,2.878-3.56,4H176  V178z" data-original="#0378A3"/><path style="fill:#29ABE2;" d="M313.096,257.832c-1.608-0.867-3.053-2.007-4.272-3.368l-64.056-71.2  c-3.041-3.36-7.364-5.273-11.896-5.264H176v80h137.416L313.096,257.832z" data-original="#29ABE2"/><path style="fill:#4D4D4D;" d="M200,290h16v16h-16V290z" data-original="#4D4D4D"/><path style="fill:#F2F2F2;" d="M400,306h32v32h-32V306z" data-original="#F2F2F2"/><path style="fill:#333333;" d="M383.152,362c10.783,10.514,16.859,24.94,16.848,40l19.88-4.968  c7.125-1.781,12.123-8.184,12.12-15.528V362L383.152,362z" data-original="#333333"/><path style="fill:#CCCCCC;" d="M464,86c-0.031-28.719-23.338-51.975-52.057-51.943C383.225,34.088,359.969,57.395,360,86.113  c0.006,5.278,0.815,10.524,2.4,15.559c-24.479-10.176-52.572,1.418-62.748,25.897s1.418,52.572,25.897,62.748  c11.725,4.874,24.904,4.904,36.651,0.083c-10.825,7.649-13.399,22.626-5.75,33.451c4.488,6.35,11.774,10.133,19.549,10.149  c-0.003,8.837,7.158,16.002,15.995,16.005c8.837,0.003,16.002-7.158,16.005-15.995c0.002-6.465-3.887-12.296-9.856-14.779  c1.227-2.923,1.858-6.062,1.856-9.232c0-0.28-0.072-0.544-0.08-0.8c21.571,4.514,42.717-9.313,47.232-30.884  c3.542-16.928-4.223-34.211-19.232-42.804C449.424,128.596,464.004,108.589,464,86z M371.144,185.576  c0.128,0.304,0.336,0.56,0.472,0.864c-1.163,0.239-2.308,0.562-3.424,0.968C369.192,186.8,370.192,186.232,371.144,185.576  L371.144,185.576z" data-original="#CCCCCC"/><circle style="fill:#808080;" cx="312" cy="42" r="16" data-original="#808080"/><path style="fill:#666666;" d="M452,246c-4.418,0-8-3.582-8-8s3.582-8,8-8s8,3.582,8,8S456.418,246,452,246z" data-original="#666666"/><path style="fill:#C1272D" d="M72,290h24v24H72V290z" data-original="#C1272D" class="active-path" data-old_color="#C1272D"/></g> </svg>
